<svg width="48" height="48" fill="none" xmlns="http://www.w3.org/2000/svg"><path d="M44 0H4C1.8 0 0 1.8 0 4v40c0 2.2 1.8 4 4 4h40c2.2 0 4-1.8 4-4V4c0-2.2-1.8-4-4-4z" fill="#2CA7E0"/><path d="M39 15.2c-1.1.5-2.8 1.1-4 1.3 1.3-.8 2.5-2.6 3-4-1 .6-2.1 1.4-3.2 1.8l-.8-.8c-1.1-1.2-2.2-2-4-2-3.4 0-6 2.6-6 6 0 .4 0 .7.1 1H24c-6 0-10-1.3-13-5-.5.9-1 1.9-1 3 0 2.1 1.3 3.9 3 5-1 0-2.2-.5-3-1 0 3 4.2 6.4 7 7-1 1-4.6.1-5 0 .8 2.4 3.3 3.9 6 4-2.1 1.6-4.6 2.5-7.5 2.5-.5 0-1 0-1.5-.1 2.7 1.7 6.5 2.6 10 2.6 11.3 0 17-8.9 17-17v-1c1.2-.9 2.2-2.1 3-3.3z" fill="#fff"/></svg>